<svg viewBox="0 0 24 24" fill="none" xmlns="http://www.w3.org/2000/svg">
<g clip-path="url(#clip0_477_6319)">
<path d="M12 24C18.6274 24 24 18.6274 24 12C24 5.37258 18.6274 0 12 0C5.37258 0 0 5.37258 0 12C0 18.6274 5.37258 24 12 24Z" fill="#F0F0F0"/>
<path d="M23.9998 11.9999C23.9998 7.24238 21.2311 3.13163 17.2172 1.19063V22.8091C21.2311 20.8682 23.9998 16.7574 23.9998 11.9999Z" fill="#D80027"/>
<path d="M0 11.9999C0 16.7574 2.76867 20.8682 6.78263 22.8092V1.19063C2.76867 3.13163 0 7.24238 0 11.9999Z" fill="#D80027"/>
<path d="M14.0869 13.5651L16.1738 12.5216L15.1304 11.9999V10.9564L13.0434 11.9999L14.0869 9.91289H13.0434L11.9999 8.34769L10.9565 9.91289H9.91297L10.9565 11.9999L8.86949 10.9564V11.9999L7.82605 12.5216L9.91297 13.5651L9.39125 14.6085H11.4782V16.1737H12.5217V14.6085H14.6086L14.0869 13.5651Z" fill="#D80027"/>
</g>
<defs>
<clipPath id="clip0_477_6319">
<rect width="24" height="24" fill="white"/>
</clipPath>
</defs>
</svg>
