<svg viewBox="0 0 24 24" fill="none" xmlns="http://www.w3.org/2000/svg">
<g clip-path="url(#clip0_3793_620)">
<path d="M12.0004 24C9.62703 24.0001 7.30691 23.2964 5.33345 21.9778C3.36 20.6593 1.82187 18.7851 0.913564 16.5924C0.0052594 14.3997 -0.232459 11.9868 0.23055 9.65902C0.693559 7.33121 1.83648 5.19298 3.51474 3.51473C5.19299 1.83647 7.33122 0.693573 9.65904 0.230564C11.9868 -0.232445 14.3997 0.00522051 16.5924 0.913525C18.7851 1.82183 20.6593 3.35996 21.9778 5.33342C23.2964 7.30687 24.0001 9.62701 24 12.0004C23.9963 15.1818 22.7309 18.2317 20.4813 20.4813C18.2318 22.7308 15.1818 23.9963 12.0004 24V24ZM12.0004 1.92974C10.0087 1.92966 8.06175 2.5202 6.40565 3.62667C4.74956 4.73313 3.45882 6.30583 2.69655 8.1459C1.93428 9.98596 1.73477 12.0107 2.12325 13.9642C2.51173 15.9176 3.4707 17.712 4.87899 19.1204C6.28727 20.5288 8.0816 21.488 10.035 21.8767C11.9884 22.2653 14.0132 22.066 15.8533 21.3039C17.6934 20.5418 19.2663 19.2511 20.3729 17.5951C21.4795 15.9391 22.0703 13.9921 22.0703 12.0004C22.0674 9.33057 21.0055 6.77091 19.1177 4.88295C17.2299 2.995 14.6703 1.93292 12.0004 1.92974V1.92974Z" fill="#EC4673"/>
<path d="M14.8573 7.57824C14.1156 7.08851 13.1924 6.93442 11.891 6.93442H9.24792V7.71774H11.8369C13.0121 7.71774 13.7396 7.82975 14.3263 8.20789C14.6126 8.38499 14.8465 8.63522 15.0039 8.93277C15.1613 9.23032 15.2364 9.56445 15.2217 9.90073C15.2329 10.223 15.1632 10.5429 15.0191 10.8313C14.8749 11.1197 14.6608 11.3675 14.3963 11.5519C13.8924 11.9017 13.2765 12.0841 11.8356 12.0841H9.24792V17.0652H10.1016V12.8396H11.7387C13.1242 12.8396 14.1452 12.6996 14.9011 12.1816C15.2782 11.9286 15.5851 11.5842 15.7931 11.1806C16.0012 10.777 16.1036 10.3272 16.0908 9.87325C16.1021 9.41655 15.9942 8.96481 15.778 8.56242C15.5617 8.16003 15.2444 7.82086 14.8573 7.57824V7.57824Z" fill="#EC4673"/>
</g>
<defs>
<clipPath id="clip0_3793_620">
<rect width="24" height="24" fill="white"/>
</clipPath>
</defs>
</svg>
